<?xml version="1.0" encoding="UTF-8"?>
<!DOCTYPE svg PUBLIC "-//W3C//DTD SVG 1.1//EN" "http://www.w3.org/Graphics/SVG/1.1/DTD/svg11.dtd">
<svg xmlns="http://www.w3.org/2000/svg" version="1.1" width="257px" height="103px" style="shape-rendering:geometricPrecision; text-rendering:geometricPrecision; image-rendering:optimizeQuality; fill-rule:evenodd; clip-rule:evenodd" xmlns:xlink="http://www.w3.org/1999/xlink">
<g><path style="opacity:0.999" fill="#c16aa5" d="M 218.5,31.5 C 220.401,28.6722 219.734,27.0056 216.5,26.5C 216.511,24.9826 217.177,23.8159 218.5,23C 214.804,23.0032 211.137,23.5032 207.5,24.5C 208.476,21.5332 208.809,18.6999 208.5,16C 206.866,15.5065 205.199,15.3398 203.5,15.5C 210.389,13.5425 217.389,11.5425 224.5,9.5C 229.656,10.4842 233.156,13.4842 235,18.5C 235.667,20.1667 235.667,21.8333 235,23.5C 229.402,26.0497 223.902,28.7164 218.5,31.5 Z"/></g>
<g><path style="opacity:1" fill="#893da1" d="M 150.5,10.5 C 151.959,10.4326 153.292,10.7659 154.5,11.5C 154.739,13.4672 154.406,15.3005 153.5,17C 155.81,17.4966 158.143,17.6633 160.5,17.5C 160.427,19.0269 161.094,20.0269 162.5,20.5C 162.5,22.5 162.5,24.5 162.5,26.5C 158.774,26.1774 155.107,26.5108 151.5,27.5C 150.788,30.2123 149.121,31.8789 146.5,32.5C 145.835,27.8316 145.835,23.3316 146.5,19C 145.906,18.5357 145.239,18.369 144.5,18.5C 144.5,15.8333 144.5,13.1667 144.5,10.5C 146.5,10.5 148.5,10.5 150.5,10.5 Z"/></g>
<g><path style="opacity:1" fill="#5781e5" d="M 42.5,11.5 C 45.8291,11.2153 48.8291,11.8819 51.5,13.5C 51.5,15.8333 51.5,18.1667 51.5,20.5C 52.5,20.5 53.5,20.5 54.5,20.5C 54.5,22.5 54.5,24.5 54.5,26.5C 54.5,26.8333 54.5,27.1667 54.5,27.5C 55.1667,28.1667 55.8333,28.8333 56.5,29.5C 58.1964,31.5248 59.863,33.5248 61.5,35.5C 62.2623,37.2624 63.5956,38.2624 65.5,38.5C 68.2072,40.8432 70.8739,43.1765 73.5,45.5C 71.8974,44.3228 70.564,44.4894 69.5,46C 70.1325,49.5152 70.4658,53.3486 70.5,57.5C 69.8333,57.5 69.1667,57.5 68.5,57.5C 68.5,57.8333 68.5,58.1667 68.5,58.5C 64.6307,58.1784 61.2974,59.3451 58.5,62C 63.8333,62.6667 63.8333,63.3333 58.5,64C 61.1667,64.6667 61.1667,65.3333 58.5,66C 59.7932,66.49 61.1266,66.6567 62.5,66.5C 62.8064,69.3854 62.4731,72.0521 61.5,74.5C 60.7375,75.2679 59.7375,75.7679 58.5,76C 61.1667,76.6667 61.1667,77.3333 58.5,78C 59.8333,78.3333 61.1667,78.6667 62.5,79C 62.2025,81.446 62.2025,83.946 62.5,86.5C 59.6844,83.2005 56.0177,81.8671 51.5,82.5C 50.1802,87.4289 47.1802,88.5956 42.5,86C 41.7476,85.3292 41.4142,84.4959 41.5,83.5C 41.799,75.747 41.4657,68.0804 40.5,60.5C 38.6908,59.5188 37.3574,58.0188 36.5,56C 38.3008,55.6827 38.6341,55.016 37.5,54C 39.4146,51.6004 41.0812,49.1004 42.5,46.5C 42.427,44.9731 43.0937,43.9731 44.5,43.5C 45.9063,43.0269 46.573,42.0269 46.5,40.5C 46.7512,38.8297 47.4178,37.3297 48.5,36C 46.0268,35.7805 44.3602,34.6138 43.5,32.5C 43.5,31.5 43.5,30.5 43.5,29.5C 42.209,29.2627 41.209,29.596 40.5,30.5C 39.5,30.5 38.5,30.5 37.5,30.5C 37.0269,29.0937 36.0269,28.427 34.5,28.5C 34.573,26.9731 33.9063,25.9731 32.5,25.5C 32.5569,24.391 32.8902,23.391 33.5,22.5C 34.8333,22.5 36.1667,22.5 37.5,22.5C 39.1667,22.5 40.8333,22.5 42.5,22.5C 42.0846,18.7127 42.0846,15.0461 42.5,11.5 Z M 58.5,42.5 C 58.9321,43.7095 59.5987,44.7095 60.5,45.5C 60.6107,46.1174 60.944,46.6174 61.5,47C 59.6183,47.1981 57.9516,47.6981 56.5,48.5C 56.1667,48.5 55.8333,48.5 55.5,48.5C 54.5084,48.6716 53.8417,48.3382 53.5,47.5C 54.9744,46.5637 55.9744,45.2303 56.5,43.5C 57.1667,43.1667 57.8333,42.8333 58.5,42.5 Z M 68.5,55.5 C 68.5,56.1667 68.5,56.8333 68.5,57.5C 62.3778,58.1967 56.3778,59.53 50.5,61.5C 48.9246,60.5435 47.258,59.8769 45.5,59.5C 45.1667,58.8333 44.8333,58.1667 44.5,57.5C 51.0509,57.3079 57.7176,56.6412 64.5,55.5C 65.9643,54.5946 67.2976,54.5946 68.5,55.5 Z M 56.5,67.5 C 58.1667,67.5 59.8333,67.5 61.5,67.5C 61.5,69.8333 61.5,72.1667 61.5,74.5C 58.0977,74.3424 54.7644,74.6758 51.5,75.5C 51.5,73.1667 51.5,70.8333 51.5,68.5C 53.4147,68.7845 55.0813,68.4511 56.5,67.5 Z"/></g>
<g><path style="opacity:1" fill="#6841b5" d="M 126.5,11.5 C 128.95,11.298 131.283,11.6314 133.5,12.5C 133.991,19.7453 133.991,27.0786 133.5,34.5C 132.167,34.5 130.833,34.5 129.5,34.5C 129.167,33.5 128.5,32.8333 127.5,32.5C 127.5,31.5 127.5,30.5 127.5,29.5C 125.901,29.2322 124.568,29.5655 123.5,30.5C 122.833,30.5 122.167,30.5 121.5,30.5C 121.027,29.0937 120.027,28.427 118.5,28.5C 118.573,26.9731 117.906,25.9731 116.5,25.5C 116.557,24.391 116.89,23.391 117.5,22.5C 118.833,22.5 120.167,22.5 121.5,22.5C 123.167,22.5 124.833,22.5 126.5,22.5C 126.085,18.7127 126.085,15.0461 126.5,11.5 Z"/></g>
<g><path style="opacity:0.057" fill="#e7ecfb" d="M 66.5,10.5 C 64.5,10.5 62.5,10.5 60.5,10.5C 61.0545,14.0122 60.3878,17.0122 58.5,19.5C 59.4137,16.272 59.7471,12.9387 59.5,9.5C 62.0593,9.19845 64.3926,9.53178 66.5,10.5 Z"/></g>
<g><path style="opacity:0.659" fill="#9eb6f0" d="M 51.5,13.5 C 52.4614,15.2646 52.7947,17.2646 52.5,19.5C 53.8333,19.5 55.1667,19.5 56.5,19.5C 56.1583,20.3382 55.4916,20.6716 54.5,20.5C 53.5,20.5 52.5,20.5 51.5,20.5C 51.5,18.1667 51.5,15.8333 51.5,13.5 Z"/></g>
<g><path style="opacity:0.02" fill="#c8d2f6" d="M 70.5,11.5 C 71.4511,12.9187 71.7845,14.5853 71.5,16.5C 73.4147,16.2155 75.0813,16.5489 76.5,17.5C 74.076,17.8076 71.7427,17.4742 69.5,16.5C 70.3094,14.9291 70.6427,13.2624 70.5,11.5 Z"/></g>
<g><path style="opacity:0.055" fill="#ede4f3" d="M 150.5,10.5 C 148.5,10.5 146.5,10.5 144.5,10.5C 144.5,13.1667 144.5,15.8333 144.5,18.5C 144.158,19.3382 143.492,19.6716 142.5,19.5C 143.414,16.272 143.747,12.9387 143.5,9.5C 146.059,9.19845 148.393,9.53178 150.5,10.5 Z"/></g>
<g><path style="opacity:0.02" fill="#e0c8e4" d="M 154.5,11.5 C 155.451,12.9187 155.784,14.5853 155.5,16.5C 157.415,16.2155 159.081,16.5489 160.5,17.5C 158.143,17.6633 155.81,17.4966 153.5,17C 154.406,15.3005 154.739,13.4672 154.5,11.5 Z"/></g>
<g><path style="opacity:0.631" fill="#cf95c3" d="M 200.5,15.5 C 197.713,16.4767 194.713,16.81 191.5,16.5C 191.5,17.5 191.5,18.5 191.5,19.5C 190.566,18.4324 190.232,17.099 190.5,15.5C 193.833,15.5 197.167,15.5 200.5,15.5 Z"/></g>
<g><path style="opacity:0.659" fill="#b497d4" d="M 135.5,13.5 C 136.461,15.2646 136.795,17.2646 136.5,19.5C 138.167,19.5 139.833,19.5 141.5,19.5C 139.735,20.4614 137.735,20.7947 135.5,20.5C 135.5,18.1667 135.5,15.8333 135.5,13.5 Z"/></g>
<g><path style="opacity:0.999" fill="#ac4896" d="M 200.5,15.5 C 201.5,15.5 202.5,15.5 203.5,15.5C 205.199,15.3398 206.866,15.5065 208.5,16C 208.809,18.6999 208.476,21.5332 207.5,24.5C 204.176,26.3967 200.843,26.73 197.5,25.5C 196.738,23.7376 195.404,22.7376 193.5,22.5C 193.573,20.9731 192.906,19.9731 191.5,19.5C 191.5,18.5 191.5,17.5 191.5,16.5C 194.713,16.81 197.713,16.4767 200.5,15.5 Z"/></g>
<g><path style="opacity:0.216" fill="#d7ddf8" d="M 76.5,17.5 C 77.9063,17.9731 78.573,18.9731 78.5,20.5C 77.0937,20.0269 76.427,19.0269 76.5,17.5 Z"/></g>
<g><path style="opacity:0.216" fill="#e6d0e7" d="M 160.5,17.5 C 161.906,17.9731 162.573,18.9731 162.5,20.5C 161.094,20.0269 160.427,19.0269 160.5,17.5 Z"/></g>
<g><path style="opacity:0.004" fill="#f1e0ee" d="M 191.5,19.5 C 192.906,19.9731 193.573,20.9731 193.5,22.5C 192.094,22.0269 191.427,21.0269 191.5,19.5 Z"/></g>
<g><path style="opacity:0.49" fill="#c6d6f6" d="M 42.5,11.5 C 42.0846,15.0461 42.0846,18.7127 42.5,22.5C 40.8333,22.5 39.1667,22.5 37.5,22.5C 38.5676,21.5655 39.901,21.2322 41.5,21.5C 41.722,18.6097 41.0553,15.943 39.5,13.5C 40.0047,12.0815 41.0047,11.4148 42.5,11.5 Z"/></g>
<g><path style="opacity:0.49" fill="#ccc1e8" d="M 126.5,11.5 C 126.085,15.0461 126.085,18.7127 126.5,22.5C 124.833,22.5 123.167,22.5 121.5,22.5C 122.568,21.5655 123.901,21.2322 125.5,21.5C 125.722,18.6097 125.055,15.943 123.5,13.5C 124.005,12.0815 125.005,11.4148 126.5,11.5 Z"/></g>
<g><path style="opacity:0.631" fill="#e2bdd9" d="M 193.5,22.5 C 195.404,22.7376 196.738,23.7376 197.5,25.5C 195.596,25.2624 194.262,24.2624 193.5,22.5 Z"/></g>
<g><path style="opacity:0.086" fill="#ebf2fc" d="M 33.5,22.5 C 32.8902,23.391 32.5569,24.391 32.5,25.5C 31.1148,24.0527 31.4482,23.0527 33.5,22.5 Z"/></g>
<g><path style="opacity:1" fill="#5175e2" d="M 66.5,10.5 C 67.9587,10.4326 69.2921,10.7659 70.5,11.5C 70.6427,13.2624 70.3094,14.9291 69.5,16.5C 71.7427,17.4742 74.076,17.8076 76.5,17.5C 76.427,19.0269 77.0937,20.0269 78.5,20.5C 78.6747,22.6208 78.3414,24.6208 77.5,26.5C 74.1016,26.1796 70.7683,26.513 67.5,27.5C 66.788,30.2123 65.1213,31.8789 62.5,32.5C 61.5041,32.5858 60.6708,32.2524 60,31.5C 59.5065,29.8659 59.3398,28.1992 59.5,26.5C 57.8333,26.5 56.1667,26.5 54.5,26.5C 54.5,24.5 54.5,22.5 54.5,20.5C 55.4916,20.6716 56.1583,20.3382 56.5,19.5C 57.1667,19.5 57.8333,19.5 58.5,19.5C 60.3878,17.0122 61.0545,14.0122 60.5,10.5C 62.5,10.5 64.5,10.5 66.5,10.5 Z"/></g>
<g><path style="opacity:0.757" fill="#b7c0f2" d="M 78.5,20.5 C 79.339,21.6412 80.0057,22.9745 80.5,24.5C 79.9953,25.9185 78.9953,26.5852 77.5,26.5C 78.3414,24.6208 78.6747,22.6208 78.5,20.5 Z"/></g>
<g><path style="opacity:0.086" fill="#ecebf8" d="M 117.5,22.5 C 116.89,23.391 116.557,24.391 116.5,25.5C 115.115,24.0527 115.448,23.0527 117.5,22.5 Z"/></g>
<g><path style="opacity:0.757" fill="#d4abd3" d="M 162.5,20.5 C 163.339,21.6412 164.006,22.9745 164.5,24.5C 164.145,25.5223 163.478,26.189 162.5,26.5C 162.5,24.5 162.5,22.5 162.5,20.5 Z"/></g>
<g><path style="opacity:0.882" fill="#b1cff6" d="M 12.5,26.5 C 10.5,26.5 8.5,26.5 6.5,26.5C 6.5,28.5 6.5,30.5 6.5,32.5C 5.38815,30.4006 4.72148,28.0673 4.5,25.5C 7.38544,25.1936 10.0521,25.5269 12.5,26.5 Z"/></g>
<g><path style="opacity:1" fill="#67a1ec" d="M 12.5,26.5 C 13.4916,26.3284 14.1583,26.6618 14.5,27.5C 15.9196,30.3489 17.9196,31.0156 20.5,29.5C 20.8417,28.6618 21.5084,28.3284 22.5,28.5C 21.9394,31.0343 21.606,33.5343 21.5,36C 22.448,36.4828 23.448,36.6495 24.5,36.5C 24.8168,40.7016 24.4834,44.7016 23.5,48.5C 23.8226,44.774 23.4892,41.1073 22.5,37.5C 20.9291,38.3094 19.2624,38.6427 17.5,38.5C 16.5184,41.9619 16.185,45.6286 16.5,49.5C 18.099,49.7678 19.4324,49.4345 20.5,48.5C 21.1667,48.5 21.8333,48.5 22.5,48.5C 21.5957,51.0447 21.5957,53.7114 22.5,56.5C 21.1667,56.5 19.8333,56.5 18.5,56.5C 18.6378,64.8877 15.4712,66.5544 9,61.5C 7.13022,51.9658 6.29689,42.2992 6.5,32.5C 6.5,30.5 6.5,28.5 6.5,26.5C 8.5,26.5 10.5,26.5 12.5,26.5 Z M 23.5,48.5 C 23.1667,48.5 22.8333,48.5 22.5,48.5C 21.8333,48.5 21.1667,48.5 20.5,48.5C 19.5,48.5 18.5,48.5 17.5,48.5C 17.5,45.1667 17.5,41.8333 17.5,38.5C 19.2624,38.6427 20.9291,38.3094 22.5,37.5C 23.4892,41.1073 23.8226,44.774 23.5,48.5 Z"/></g>
<g><path style="opacity:1" fill="#5e93e9" d="M 32.5,27.5 C 32.5,28.1667 32.8333,28.5 33.5,28.5C 33.5,29.1667 33.8333,29.5 34.5,29.5C 34.5,30.1667 34.8333,30.5 35.5,30.5C 36.625,31.6522 36.625,32.6522 35.5,33.5C 34.7784,33.9175 34.2784,34.5842 34,35.5C 33.5005,41.4908 33.3338,47.4908 33.5,53.5C 33.369,54.2389 33.5357,54.9056 34,55.5C 36.3868,52.0435 39.2202,49.0435 42.5,46.5C 41.0812,49.1004 39.4146,51.6004 37.5,54C 38.6341,55.016 38.3008,55.6827 36.5,56C 37.3574,58.0188 38.6908,59.5188 40.5,60.5C 39.5084,60.3284 38.8417,60.6618 38.5,61.5C 35.3858,63.3908 32.0525,64.7241 28.5,65.5C 27.448,65.6495 26.448,65.4828 25.5,65C 31.0304,61.0578 30.697,59.8911 24.5,61.5C 23.0687,60.2196 22.4021,58.5529 22.5,56.5C 21.5957,53.7114 21.5957,51.0447 22.5,48.5C 22.8333,48.5 23.1667,48.5 23.5,48.5C 24.4834,44.7016 24.8168,40.7016 24.5,36.5C 23.448,36.6495 22.448,36.4828 21.5,36C 21.606,33.5343 21.9394,31.0343 22.5,28.5C 23.2495,26.7538 24.5828,25.7538 26.5,25.5C 28.516,26.1776 30.516,26.8443 32.5,27.5 Z"/></g>
<g><path style="opacity:0.004" fill="#e6edfb" d="M 32.5,25.5 C 33.9063,25.9731 34.573,26.9731 34.5,28.5C 34.1667,28.5 33.8333,28.5 33.5,28.5C 32.8333,28.5 32.5,28.1667 32.5,27.5C 32.5,26.8333 32.5,26.1667 32.5,25.5 Z"/></g>
<g><path style="opacity:0.882" fill="#acb2ef" d="M 96.5,26.5 C 94.5,26.5 92.5,26.5 90.5,26.5C 90.5,28.5 90.5,30.5 90.5,32.5C 89.3882,30.4006 88.7215,28.0673 88.5,25.5C 91.3854,25.1936 94.0521,25.5269 96.5,26.5 Z"/></g>
<g><path style="opacity:1" fill="#5450cb" d="M 112.5,26.5 C 112.833,26.5 113.167,26.5 113.5,26.5C 114.035,28.4456 115.368,29.4456 117.5,29.5C 118.019,34.0918 118.019,38.7585 117.5,43.5C 116.674,47.9819 116.174,52.6486 116,57.5C 114.955,58.3734 114.122,59.3734 113.5,60.5C 111.883,61.038 110.216,61.3713 108.5,61.5C 107.069,60.2196 106.402,58.5529 106.5,56.5C 105.167,56.5 103.833,56.5 102.5,56.5C 101.778,56.9175 101.278,57.5842 101,58.5C 100.833,58 100.667,57.5 100.5,57C 101.657,54.4175 101.657,51.9175 100.5,49.5C 102.099,49.7678 103.432,49.4345 104.5,48.5C 105.5,48.5 106.5,48.5 107.5,48.5C 108.162,46.6965 108.495,44.6965 108.5,42.5C 107.506,37.8634 106.839,33.1967 106.5,28.5C 108.315,27.3702 110.315,26.7036 112.5,26.5 Z"/></g>
<g><path style="opacity:0.004" fill="#e7e4f6" d="M 116.5,25.5 C 117.906,25.9731 118.573,26.9731 118.5,28.5C 118.167,28.5 117.833,28.5 117.5,28.5C 117.5,27.8333 117.167,27.5 116.5,27.5C 116.5,26.8333 116.5,26.1667 116.5,25.5 Z"/></g>
<g><path style="opacity:0.004" fill="#e2edfb" d="M 14.5,27.5 C 16.3146,28.6298 18.3146,29.2964 20.5,29.5C 17.9196,31.0156 15.9196,30.3489 14.5,27.5 Z"/></g>
<g><path style="opacity:0.941" fill="#9b95e1" d="M 112.5,26.5 C 110.315,26.7036 108.315,27.3702 106.5,28.5C 107.92,25.6511 109.92,24.9844 112.5,26.5 Z"/></g>
<g><path style="opacity:0.961" fill="#b4a9e4" d="M 113.5,26.5 C 114.391,27.1098 115.391,27.4431 116.5,27.5C 117.167,27.5 117.5,27.8333 117.5,28.5C 117.5,28.8333 117.5,29.1667 117.5,29.5C 115.368,29.4456 114.035,28.4456 113.5,26.5 Z"/></g>
<g><path style="opacity:1" fill="#b5539a" d="M 216.5,26.5 C 219.734,27.0056 220.401,28.6722 218.5,31.5C 218.557,32.609 218.89,33.609 219.5,34.5C 219.007,36.8056 218.674,39.139 218.5,41.5C 219.5,41.5 220.5,41.5 221.5,41.5C 222.873,41.3433 224.207,41.51 225.5,42C 224.484,43.9424 224.151,46.1091 224.5,48.5C 222.958,49.3007 221.292,49.634 219.5,49.5C 218.506,58.6517 218.173,67.985 218.5,77.5C 218.672,78.4916 218.338,79.1583 217.5,79.5C 215.833,80.5 214.5,81.8333 213.5,83.5C 212.129,85.1412 210.296,86.1412 208,86.5C 207.235,86.4301 206.735,86.0967 206.5,85.5C 205.833,84.1667 204.833,83.1667 203.5,82.5C 201.798,78.9567 199.465,75.7901 196.5,73C 198.473,72.5045 200.473,72.3379 202.5,72.5C 203.919,73.4511 205.585,73.7845 207.5,73.5C 207.5,72.5 207.5,71.5 207.5,70.5C 207.5,70.1667 207.5,69.8333 207.5,69.5C 208.817,63.3217 208.817,56.9883 207.5,50.5C 206.893,50.6236 206.56,50.9569 206.5,51.5C 206.167,51.5 205.833,51.5 205.5,51.5C 205.849,49.1091 205.516,46.9424 204.5,45C 201.854,44.5026 199.187,44.3359 196.5,44.5C 198.948,43.5269 201.615,43.1936 204.5,43.5C 205.833,43.5 207.167,43.5 208.5,43.5C 208.58,40.2186 207.913,37.2186 206.5,34.5C 205.549,33.0813 205.216,31.4147 205.5,29.5C 207.5,29.5 209.5,29.5 211.5,29.5C 214.235,30.8211 215.902,29.8211 216.5,26.5 Z"/></g>
<g><path style="opacity:1" fill="#5460da" d="M 96.5,26.5 C 97.4916,26.3284 98.1583,26.6618 98.5,27.5C 99.9196,30.3489 101.92,31.0156 104.5,29.5C 104.842,28.6618 105.508,28.3284 106.5,28.5C 106.839,33.1967 107.506,37.8634 108.5,42.5C 108.495,44.6965 108.162,46.6965 107.5,48.5C 107.823,44.774 107.489,41.1073 106.5,37.5C 104.929,38.3094 103.262,38.6427 101.5,38.5C 100.518,41.9619 100.185,45.6286 100.5,49.5C 101.657,51.9175 101.657,54.4175 100.5,57C 100.667,57.5 100.833,58 101,58.5C 101.278,57.5842 101.778,56.9175 102.5,56.5C 103.37,62.3516 101.037,64.8516 95.5,64C 93.8588,62.871 92.8588,61.371 92.5,59.5C 92.439,50.3061 91.7723,41.3061 90.5,32.5C 90.5,30.5 90.5,28.5 90.5,26.5C 92.5,26.5 94.5,26.5 96.5,26.5 Z M 107.5,48.5 C 106.5,48.5 105.5,48.5 104.5,48.5C 103.5,48.5 102.5,48.5 101.5,48.5C 101.5,45.1667 101.5,41.8333 101.5,38.5C 103.262,38.6427 104.929,38.3094 106.5,37.5C 107.489,41.1073 107.823,44.774 107.5,48.5 Z"/></g>
<g><path style="opacity:0.196" fill="#d7e3f9" d="M 34.5,29.5 C 34.5,29.1667 34.5,28.8333 34.5,28.5C 36.0269,28.427 37.0269,29.0937 37.5,30.5C 36.8333,30.5 36.1667,30.5 35.5,30.5C 34.8333,30.5 34.5,30.1667 34.5,29.5 Z"/></g>
<g><path style="opacity:0.188" fill="#dfe1f7" d="M 98.5,27.5 C 100.315,28.6298 102.315,29.2964 104.5,29.5C 101.92,31.0156 99.9196,30.3489 98.5,27.5 Z"/></g>
<g><path style="opacity:0.196" fill="#dad4f0" d="M 118.5,29.5 C 118.5,29.1667 118.5,28.8333 118.5,28.5C 120.027,28.427 121.027,29.0937 121.5,30.5C 120.833,30.5 120.167,30.5 119.5,30.5C 119.5,29.8333 119.167,29.5 118.5,29.5 Z"/></g>
<g><path style="opacity:0.208" fill="#e5e0f3" d="M 123.5,30.5 C 124.568,29.5655 125.901,29.2322 127.5,29.5C 127.5,30.5 127.5,31.5 127.5,32.5C 126.533,31.1938 125.199,30.5271 123.5,30.5 Z"/></g>
<g><path style="opacity:0.098" fill="#dfcfea" d="M 138.5,27.5 C 139.568,26.5655 140.901,26.2322 142.5,26.5C 141.891,29.8784 143.224,31.8784 146.5,32.5C 145.89,33.391 145.557,34.391 145.5,35.5C 143.863,33.5248 142.196,31.5248 140.5,29.5C 141.043,29.44 141.376,29.1067 141.5,28.5C 140.675,27.6143 139.675,27.281 138.5,27.5 Z"/></g>
<g><path style="opacity:0.49" fill="#e6c5dc" d="M 216.5,26.5 C 215.902,29.8211 214.235,30.8211 211.5,29.5C 213.411,28.925 215.078,27.925 216.5,26.5 Z"/></g>
<g><path style="opacity:0.2" fill="#e6edfb" d="M 40.5,30.5 C 41.209,29.596 42.209,29.2627 43.5,29.5C 43.5,30.5 43.5,31.5 43.5,32.5C 42.7777,31.4489 41.7777,30.7822 40.5,30.5 Z"/></g>
<g><path style="opacity:0.596" fill="#b7c6f3" d="M 54.5,27.5 C 54.5,27.1667 54.5,26.8333 54.5,26.5C 56.1667,26.5 57.8333,26.5 59.5,26.5C 59.3398,28.1992 59.5065,29.8659 60,31.5C 60.6708,32.2524 61.5041,32.5858 62.5,32.5C 61.8902,33.391 61.5569,34.391 61.5,35.5C 59.863,33.5248 58.1964,31.5248 56.5,29.5C 57.0431,29.44 57.3764,29.1067 57.5,28.5C 56.675,27.6143 55.675,27.281 54.5,27.5 Z"/></g>
<g><path style="opacity:1" fill="#7a40ab" d="M 133.5,12.5 C 134.492,12.3284 135.158,12.6618 135.5,13.5C 135.5,15.8333 135.5,18.1667 135.5,20.5C 137.735,20.7947 139.735,20.4614 141.5,19.5C 141.833,19.5 142.167,19.5 142.5,19.5C 143.492,19.6716 144.158,19.3382 144.5,18.5C 145.239,18.369 145.906,18.5357 146.5,19C 145.835,23.3316 145.835,27.8316 146.5,32.5C 143.224,31.8784 141.891,29.8784 142.5,26.5C 140.901,26.2322 139.568,26.5655 138.5,27.5C 139.167,28.1667 139.833,28.8333 140.5,29.5C 142.196,31.5248 143.863,33.5248 145.5,35.5C 146.262,37.2624 147.596,38.2624 149.5,38.5C 150.726,42.633 150.726,46.633 149.5,50.5C 148.5,48.8333 147.167,47.5 145.5,46.5C 144.026,45.5637 143.026,44.2303 142.5,42.5C 141.377,41.2426 140.711,41.5759 140.5,43.5C 139.974,45.2303 138.974,46.5637 137.5,47.5C 136.115,48.3023 136.282,48.9689 138,49.5C 138.765,49.4301 139.265,49.0967 139.5,48.5C 139.833,48.5 140.167,48.5 140.5,48.5C 144.112,47.9238 147.112,48.9238 149.5,51.5C 149.567,52.9587 149.234,54.2921 148.5,55.5C 144.846,55.9422 141.179,56.2756 137.5,56.5C 135.897,56.6882 134.563,56.1882 133.5,55C 134.62,49.1093 134.62,42.9427 133.5,36.5C 133.5,35.8333 133.5,35.1667 133.5,34.5C 133.991,27.0786 133.991,19.7453 133.5,12.5 Z M 138.5,27.5 C 139.675,27.281 140.675,27.6143 141.5,28.5C 141.376,29.1067 141.043,29.44 140.5,29.5C 139.833,28.8333 139.167,28.1667 138.5,27.5 Z M 142.5,42.5 C 143.026,44.2303 144.026,45.5637 145.5,46.5C 143.833,47.1667 142.167,47.8333 140.5,48.5C 140.167,48.5 139.833,48.5 139.5,48.5C 138.508,48.6716 137.842,48.3382 137.5,47.5C 138.974,46.5637 139.974,45.2303 140.5,43.5C 141.167,43.1667 141.833,42.8333 142.5,42.5 Z"/></g>
<g><path style="opacity:0.039" fill="#d6cbeb" d="M 127.5,32.5 C 128.5,32.8333 129.167,33.5 129.5,34.5C 128.167,34.5 127.5,33.8333 127.5,32.5 Z"/></g>
<g><path style="opacity:0.263" fill="#d9ceeb" d="M 129.5,34.5 C 130.833,34.5 132.167,34.5 133.5,34.5C 133.5,35.1667 133.5,35.8333 133.5,36.5C 133.167,36.5 132.833,36.5 132.5,36.5C 131.5,35.8333 130.5,35.1667 129.5,34.5 Z"/></g>
<g><path style="opacity:0.004" fill="#d7dff8" d="M 61.5,35.5 C 63.4044,35.7376 64.7377,36.7376 65.5,38.5C 63.5956,38.2624 62.2623,37.2624 61.5,35.5 Z"/></g>
<g><path style="opacity:0.004" fill="#e2d1ea" d="M 145.5,35.5 C 147.404,35.7376 148.738,36.7376 149.5,38.5C 147.596,38.2624 146.262,37.2624 145.5,35.5 Z"/></g>
<g><path style="opacity:0.494" fill="#c9c1eb" d="M 117.5,29.5 C 117.833,29.5 118.167,29.5 118.5,29.5C 119.167,29.5 119.5,29.8333 119.5,30.5C 119.804,31.1499 120.137,31.8165 120.5,32.5C 118.997,39.5407 117.997,46.5407 117.5,53.5C 117.5,50.1667 117.5,46.8333 117.5,43.5C 118.019,38.7585 118.019,34.0918 117.5,29.5 Z"/></g>
<g><path style="opacity:0.659" fill="#ddb1d1" d="M 206.5,34.5 C 207.913,37.2186 208.58,40.2186 208.5,43.5C 207.167,43.5 205.833,43.5 204.5,43.5C 205.398,42.8423 206.398,42.1757 207.5,41.5C 206.626,39.2534 206.292,36.9201 206.5,34.5 Z"/></g>
<g><path style="opacity:0.396" fill="#e6c4dc" d="M 219.5,34.5 C 220.735,36.017 220.735,37.6837 219.5,39.5C 219.957,40.2975 220.624,40.6309 221.5,40.5C 221.5,40.8333 221.5,41.1667 221.5,41.5C 220.5,41.5 219.5,41.5 218.5,41.5C 218.674,39.139 219.007,36.8056 219.5,34.5 Z"/></g>
<g><path style="opacity:1" fill="#c770a6" d="M 224.5,48.5 C 224.151,46.1091 224.484,43.9424 225.5,42C 224.207,41.51 222.873,41.3433 221.5,41.5C 221.5,41.1667 221.5,40.8333 221.5,40.5C 229.75,38.4812 238.083,37.3146 246.5,37C 250.722,39.7518 252.056,43.4184 250.5,48C 241.832,47.229 233.165,47.3956 224.5,48.5 Z"/></g>
<g><path style="opacity:0.063" fill="#e6ecfb" d="M 58.5,42.5 C 57.8333,42.8333 57.1667,43.1667 56.5,43.5C 56.7107,41.5759 57.3774,41.2426 58.5,42.5 Z"/></g>
<g><path style="opacity:0.063" fill="#ece3f3" d="M 142.5,42.5 C 141.833,42.8333 141.167,43.1667 140.5,43.5C 140.711,41.5759 141.377,41.2426 142.5,42.5 Z"/></g>
<g><path style="opacity:0.329" fill="#c8d7f6" d="M 46.5,40.5 C 46.573,42.0269 45.9063,43.0269 44.5,43.5C 44.427,41.9731 45.0937,40.9731 46.5,40.5 Z"/></g>
<g><path style="opacity:0.329" fill="#d0c4e8" d="M 130.5,40.5 C 130.573,42.0269 129.906,43.0269 128.5,43.5C 128.427,41.9731 129.094,40.9731 130.5,40.5 Z"/></g>
<g><path style="opacity:1" fill="#657ae3" d="M 73.5,45.5 C 78.646,48.2404 83.646,51.2404 88.5,54.5C 83.1681,58.6654 77.1681,59.9988 70.5,58.5C 70.5,58.1667 70.5,57.8333 70.5,57.5C 70.4658,53.3486 70.1325,49.5152 69.5,46C 70.564,44.4894 71.8974,44.3228 73.5,45.5 Z"/></g>
<g><path style="opacity:0.631" fill="#c4b5e3" d="M 128.5,43.5 C 128.573,45.0269 127.906,46.0269 126.5,46.5C 126.427,44.9731 127.094,43.9731 128.5,43.5 Z"/></g>
<g><path style="opacity:1" fill="#ad4e9a" d="M 196.5,44.5 C 199.187,44.3359 201.854,44.5026 204.5,45C 205.516,46.9424 205.849,49.1091 205.5,51.5C 198.004,53.0015 190.504,54.6682 183,56.5C 177.371,54.9152 175.204,51.4152 176.5,46C 183.156,45.2888 189.822,44.7888 196.5,44.5 Z"/></g>
<g><path style="opacity:0.494" fill="#afcdf5" d="M 17.5,38.5 C 17.5,41.8333 17.5,45.1667 17.5,48.5C 18.5,48.5 19.5,48.5 20.5,48.5C 19.4324,49.4345 18.099,49.7678 16.5,49.5C 16.185,45.6286 16.5184,41.9619 17.5,38.5 Z"/></g>
<g><path style="opacity:0.494" fill="#aab0eb" d="M 101.5,38.5 C 101.5,41.8333 101.5,45.1667 101.5,48.5C 102.5,48.5 103.5,48.5 104.5,48.5C 103.432,49.4345 102.099,49.7678 100.5,49.5C 100.185,45.6286 100.518,41.9619 101.5,38.5 Z"/></g>
<g><path style="opacity:0.055" fill="#e2eafb" d="M 35.5,33.5 C 34.9479,40.3142 34.2812,46.9809 33.5,53.5C 33.3338,47.4908 33.5005,41.4908 34,35.5C 34.2784,34.5842 34.7784,33.9175 35.5,33.5 Z"/></g>
<g><path style="opacity:0.66" fill="#acb5f0" d="M 90.5,32.5 C 91.7723,41.3061 92.439,50.3061 92.5,59.5C 91.046,50.7067 90.3793,41.7067 90.5,32.5 Z"/></g>
<g><path style="opacity:1" fill="#9847a1" d="M 149.5,38.5 C 156.651,44.5756 164.318,49.9089 172.5,54.5C 167.168,58.6654 161.168,59.9988 154.5,58.5C 154.5,58.1667 154.5,57.8333 154.5,57.5C 154.144,55.8102 153.144,54.8102 151.5,54.5C 151.573,52.9731 150.906,51.9731 149.5,51.5C 149.5,51.1667 149.5,50.8333 149.5,50.5C 150.726,46.633 150.726,42.633 149.5,38.5 Z"/></g>
<g><path style="opacity:0.216" fill="#b3c3f2" d="M 60.5,45.5 C 62.8598,46.865 64.5265,48.865 65.5,51.5C 63.1125,48.9238 60.1125,47.9238 56.5,48.5C 57.9516,47.6981 59.6183,47.1981 61.5,47C 60.944,46.6174 60.6107,46.1174 60.5,45.5 Z"/></g>
<g><path style="opacity:0.569" fill="#c5a5d6" d="M 145.5,46.5 C 147.167,47.5 148.5,48.8333 149.5,50.5C 149.5,50.8333 149.5,51.1667 149.5,51.5C 147.112,48.9238 144.112,47.9238 140.5,48.5C 142.167,47.8333 143.833,47.1667 145.5,46.5 Z"/></g>
<g><path style="opacity:0.035" fill="#d7e1f9" d="M 53.5,47.5 C 53.8417,48.3382 54.5084,48.6716 55.5,48.5C 54.6136,49.7759 53.6136,49.7759 52.5,48.5C 52.6236,47.8933 52.9569,47.56 53.5,47.5 Z"/></g>
<g><path style="opacity:0.035" fill="#dfd3ec" d="M 137.5,47.5 C 137.842,48.3382 138.508,48.6716 139.5,48.5C 139.265,49.0967 138.765,49.4301 138,49.5C 136.282,48.9689 136.115,48.3023 137.5,47.5 Z"/></g>
<g><path style="opacity:0.631" fill="#bfb1e3" d="M 126.5,46.5 C 125.581,49.0892 123.914,51.0892 121.5,52.5C 122.419,49.9108 124.086,47.9108 126.5,46.5 Z"/></g>
<g><path style="opacity:0.484" fill="#bfcbf4" d="M 65.5,51.5 C 67.2624,52.2623 68.2624,53.5956 68.5,55.5C 67.2976,54.5946 65.9643,54.5946 64.5,55.5C 65.2341,54.2921 65.5674,52.9587 65.5,51.5 Z"/></g>
<g><path style="opacity:0.48" fill="#d4b9de" d="M 149.5,51.5 C 150.906,51.9731 151.573,52.9731 151.5,54.5C 150.609,55.1098 149.609,55.4431 148.5,55.5C 149.234,54.2921 149.567,52.9587 149.5,51.5 Z"/></g>
<g><path style="opacity:0.325" fill="#e0b9d6" d="M 206.5,51.5 C 206.56,50.9569 206.893,50.6236 207.5,50.5C 208.817,56.9883 208.817,63.3217 207.5,69.5C 207.823,63.31 207.49,57.31 206.5,51.5 Z"/></g>
<g><path style="opacity:0.451" fill="#ceabd6" d="M 151.5,54.5 C 153.144,54.8102 154.144,55.8102 154.5,57.5C 153.833,57.5 153.167,57.5 152.5,57.5C 152.443,56.391 152.11,55.391 151.5,54.5 Z"/></g>
<g><path style="opacity:0.004" fill="#eaf0fc" d="M 44.5,57.5 C 44.8333,58.1667 45.1667,58.8333 45.5,59.5C 42.5404,58.968 42.2071,58.3013 44.5,57.5 Z"/></g>
<g><path style="opacity:0.004" fill="#ede9f7" d="M 128.5,57.5 C 128.833,58.1667 129.167,58.8333 129.5,59.5C 126.54,58.968 126.207,58.3013 128.5,57.5 Z"/></g>
<g><path style="opacity:1" fill="#5777e2" d="M 68.5,58.5 C 69.1667,58.5 69.8333,58.5 70.5,58.5C 70.8333,59.1667 71.1667,59.8333 71.5,60.5C 71.8333,61.5 72.5,62.1667 73.5,62.5C 74.8333,64.1667 74.8333,65.8333 73.5,67.5C 72.8826,67.6107 72.3826,67.944 72,68.5C 71.5034,70.8098 71.3367,73.1432 71.5,75.5C 72.202,81.4475 69.8687,85.4475 64.5,87.5C 63.5836,87.4573 62.9169,87.1239 62.5,86.5C 62.2025,83.946 62.2025,81.446 62.5,79C 61.1667,78.6667 59.8333,78.3333 58.5,78C 61.1667,77.3333 61.1667,76.6667 58.5,76C 59.7375,75.7679 60.7375,75.2679 61.5,74.5C 62.4731,72.0521 62.8064,69.3854 62.5,66.5C 61.1266,66.6567 59.7932,66.49 58.5,66C 61.1667,65.3333 61.1667,64.6667 58.5,64C 63.8333,63.3333 63.8333,62.6667 58.5,62C 61.2974,59.3451 64.6307,58.1784 68.5,58.5 Z"/></g>
<g><path style="opacity:1" fill="#843ea5" d="M 152.5,58.5 C 153.167,58.5 153.833,58.5 154.5,58.5C 154.833,59.1667 155.167,59.8333 155.5,60.5C 155.833,61.5 156.5,62.1667 157.5,62.5C 158.833,64.1667 158.833,65.8333 157.5,67.5C 155.245,71.7656 154.245,76.4323 154.5,81.5C 153.72,86.0578 151.053,87.8911 146.5,87C 145.944,86.6174 145.611,86.1174 145.5,85.5C 145.5,84.1667 145.5,82.8333 145.5,81.5C 142.287,81.19 139.287,81.5233 136.5,82.5C 135.833,83.5 135.167,84.5 134.5,85.5C 133.895,81.6906 133.895,78.3573 134.5,75.5C 134.833,75.5 135.167,75.5 135.5,75.5C 138.764,74.6758 142.098,74.3424 145.5,74.5C 146.881,70.4765 146.214,66.6432 143.5,63C 144.337,61.9887 144.67,60.8221 144.5,59.5C 147.127,58.9084 149.794,58.5751 152.5,58.5 Z"/></g>
<g><path style="opacity:0.839" fill="#9286d7" d="M 117.5,43.5 C 117.5,46.8333 117.5,50.1667 117.5,53.5C 117.328,54.4916 117.662,55.1583 118.5,55.5C 117.811,58.1894 116.144,59.8561 113.5,60.5C 114.122,59.3734 114.955,58.3734 116,57.5C 116.174,52.6486 116.674,47.9819 117.5,43.5 Z"/></g>
<g><path style="opacity:0.999" fill="#935fb8" d="M 152.5,57.5 C 152.5,57.8333 152.5,58.1667 152.5,58.5C 149.794,58.5751 147.127,58.9084 144.5,59.5C 144.67,60.8221 144.337,61.9887 143.5,63C 146.214,66.6432 146.881,70.4765 145.5,74.5C 145.5,72.1667 145.5,69.8333 145.5,67.5C 143.833,67.5 142.167,67.5 140.5,67.5C 139.272,65.9902 139.272,64.4902 140.5,63C 139.095,61.7308 137.429,61.2308 135.5,61.5C 140.883,59.3816 146.549,58.0482 152.5,57.5 Z"/></g>
<g><path style="opacity:0.004" fill="#dde3f9" d="M 71.5,60.5 C 72.8333,60.5 73.5,61.1667 73.5,62.5C 72.5,62.1667 71.8333,61.5 71.5,60.5 Z"/></g>
<g><path style="opacity:1" fill="#6e47b7" d="M 132.5,36.5 C 132.833,36.5 133.167,36.5 133.5,36.5C 134.62,42.9427 134.62,49.1093 133.5,55C 134.563,56.1882 135.897,56.6882 137.5,56.5C 134.552,57.1789 131.552,57.5122 128.5,57.5C 126.207,58.3013 126.54,58.968 129.5,59.5C 131.5,60.1667 133.5,60.8333 135.5,61.5C 137.429,61.2308 139.095,61.7308 140.5,63C 139.272,64.4902 139.272,65.9902 140.5,67.5C 138.5,67.5 136.5,67.5 134.5,67.5C 134.5,70.1667 134.5,72.8333 134.5,75.5C 133.895,78.3573 133.895,81.6906 134.5,85.5C 132.08,87.9244 129.413,88.0911 126.5,86C 125.748,85.3292 125.414,84.4959 125.5,83.5C 125.666,76.1591 125.5,68.8258 125,61.5C 124.023,60.2264 123.189,60.2264 122.5,61.5C 119.386,63.3908 116.052,64.7241 112.5,65.5C 111.448,65.6495 110.448,65.4828 109.5,65C 111.041,63.6288 112.375,62.1288 113.5,60.5C 116.144,59.8561 117.811,58.1894 118.5,55.5C 119.167,54.1667 120.167,53.1667 121.5,52.5C 123.914,51.0892 125.581,49.0892 126.5,46.5C 127.906,46.0269 128.573,45.0269 128.5,43.5C 129.906,43.0269 130.573,42.0269 130.5,40.5C 130.66,38.847 131.326,37.5137 132.5,36.5 Z"/></g>
<g><path style="opacity:0.004" fill="#e9d8ec" d="M 155.5,60.5 C 156.833,60.5 157.5,61.1667 157.5,62.5C 156.5,62.1667 155.833,61.5 155.5,60.5 Z"/></g>
<g><path style="opacity:0.827" fill="#bbd0f6" d="M 28.5,65.5 C 26.7116,66.6225 24.7116,66.7891 22.5,66C 24.6502,64.8077 25.3168,63.3077 24.5,61.5C 30.697,59.8911 31.0304,61.0578 25.5,65C 26.448,65.4828 27.448,65.6495 28.5,65.5 Z"/></g>
<g><path style="opacity:0.827" fill="#bab5ea" d="M 113.5,60.5 C 112.375,62.1288 111.041,63.6288 109.5,65C 110.448,65.4828 111.448,65.6495 112.5,65.5C 110.712,66.6225 108.712,66.7891 106.5,66C 108.65,64.8077 109.317,63.3077 108.5,61.5C 110.216,61.3713 111.883,61.038 113.5,60.5 Z"/></g>
<g><path style="opacity:0.769" fill="#e3bcd7" d="M 219.5,49.5 C 219.306,56.3609 219.639,63.1942 220.5,70C 220.354,72.7598 219.687,75.2598 218.5,77.5C 218.173,67.985 218.506,58.6517 219.5,49.5 Z"/></g>
<g><path style="opacity:0.488" fill="#adc2f2" d="M 56.5,67.5 C 55.0813,68.4511 53.4147,68.7845 51.5,68.5C 51.5,70.8333 51.5,73.1667 51.5,75.5C 50.5269,73.0521 50.1936,70.3854 50.5,67.5C 52.5,67.5 54.5,67.5 56.5,67.5 Z"/></g>
<g><path style="opacity:0.488" fill="#bda5da" d="M 140.5,67.5 C 139.081,68.4511 137.415,68.7845 135.5,68.5C 135.5,70.8333 135.5,73.1667 135.5,75.5C 135.167,75.5 134.833,75.5 134.5,75.5C 134.5,72.8333 134.5,70.1667 134.5,67.5C 136.5,67.5 138.5,67.5 140.5,67.5 Z"/></g>
<g><path style="opacity:0.216" fill="#d1def8" d="M 38.5,61.5 C 38.8417,60.6618 39.5084,60.3284 40.5,60.5C 41.4657,68.0804 41.799,75.747 41.5,83.5C 40.6717,77.0126 40.1717,70.346 40,63.5C 39.7216,62.5842 39.2216,61.9175 38.5,61.5 Z"/></g>
<g><path style="opacity:0.698" fill="#b8c2f3" d="M 73.5,67.5 C 73.1977,70.3725 72.531,73.0392 71.5,75.5C 71.3367,73.1432 71.5034,70.8098 72,68.5C 72.3826,67.944 72.8826,67.6107 73.5,67.5 Z"/></g>
<g><path style="opacity:0.216" fill="#d6cded" d="M 122.5,61.5 C 123.189,60.2264 124.023,60.2264 125,61.5C 125.5,68.8258 125.666,76.1591 125.5,83.5C 124.672,77.0126 124.172,70.346 124,63.5C 123.722,62.5842 123.222,61.9175 122.5,61.5 Z"/></g>
<g><path style="opacity:0.106" fill="#f0deec" d="M 207.5,70.5 C 207.5,71.5 207.5,72.5 207.5,73.5C 205.585,73.7845 203.919,73.4511 202.5,72.5C 204.554,72.6347 206.221,71.968 207.5,70.5 Z"/></g>
<g><path style="opacity:0.255" fill="#ddc5e2" d="M 157.5,67.5 C 156.734,72.339 155.734,77.0057 154.5,81.5C 154.245,76.4323 155.245,71.7656 157.5,67.5 Z"/></g>
<g><path style="opacity:1" fill="#ae86c9" d="M 136.5,82.5 C 139.287,81.5233 142.287,81.19 145.5,81.5C 145.5,82.8333 145.5,84.1667 145.5,85.5C 143.104,83.0485 140.104,82.0485 136.5,82.5 Z"/></g>
<g><path style="opacity:0.004" fill="#f3e1ee" d="M 217.5,79.5 C 217.167,81.8333 215.833,83.1667 213.5,83.5C 214.5,81.8333 215.833,80.5 217.5,79.5 Z"/></g>
<g><path style="opacity:0.004" fill="#edd6e7" d="M 203.5,82.5 C 204.833,83.1667 205.833,84.1667 206.5,85.5C 204.5,85.5 203.5,84.5 203.5,82.5 Z"/></g>
</svg>
